<?xml version="1.0" encoding="UTF-8" standalone="no"?>
<!-- Created with Inkscape (http://www.inkscape.org/) -->

<svg
   width="151.121mm"
   height="44.388mm"
   viewBox="0 0 151.12101 44.388"
   version="1.1"
   id="svg5"
   inkscape:version="1.2.2 (b0a84865, 2022-12-01)"
   sodipodi:docname="aithing-light.svg"
   inkscape:export-filename="aithing-dark.png"
   inkscape:export-xdpi="59.923153"
   inkscape:export-ydpi="59.923153"
   xmlns:inkscape="http://www.inkscape.org/namespaces/inkscape"
   xmlns:sodipodi="http://sodipodi.sourceforge.net/DTD/sodipodi-0.dtd"
   xmlns="http://www.w3.org/2000/svg"
   xmlns:svg="http://www.w3.org/2000/svg">
  <sodipodi:namedview
     id="namedview7"
     pagecolor="#ffffff"
     bordercolor="#000000"
     borderopacity="0.25"
     inkscape:showpageshadow="2"
     inkscape:pageopacity="0.0"
     inkscape:pagecheckerboard="0"
     inkscape:deskcolor="#d1d1d1"
     inkscape:document-units="mm"
     showgrid="false"
     inkscape:zoom="0.84096521"
     inkscape:cx="144.47684"
     inkscape:cy="72.5357"
     inkscape:window-width="1512"
     inkscape:window-height="916"
     inkscape:window-x="0"
     inkscape:window-y="38"
     inkscape:window-maximized="0"
     inkscape:current-layer="text740" />
  <defs
     id="defs2" />
  <g
     inkscape:label="Layer 1"
     inkscape:groupmode="layer"
     id="layer1"
     transform="translate(-17.35315,-129.33286)">
    <g
       aria-label="aithing"
       id="text740"
       style="font-weight:bold;font-size:44.0973px;font-family:'Josefin Sans';-inkscape-font-specification:'Josefin Sans Bold';opacity:1;stroke:#ffffff;stroke-width:0">
      <path
         id="path417"
         style="fill:#ffffff"
         d="m 45.102098,163.32634 v -23.03912 h 8.612754 v 23.03912 z m 4.263313,-24.76167 q -1.959401,0 -3.229782,-1.16272 -1.270382,-1.16272 -1.270382,-2.92834 0,-1.78714 1.270382,-2.92833 1.270381,-1.16273 3.229782,-1.16273 1.959402,0 3.229783,1.16273 1.291913,1.14119 1.291913,2.92833 0,1.76562 -1.291913,2.92834 -1.270381,1.16272 -3.229783,1.16272 z m -23.18984,25.17078 q -2.28238,0 -4.047995,-0.73209 -1.744082,-0.75361 -2.734549,-2.23931 -0.990467,-1.50724 -0.990467,-3.81115 0,-1.91634 0.667489,-3.25131 0.667488,-1.35651 1.851742,-2.21779 1.205785,-0.86127 2.799145,-1.31344 1.593359,-0.45217 3.445102,-0.58136 2.002465,-0.12919 3.20825,-0.34451 1.227318,-0.23685 1.765615,-0.62443 0.538297,-0.38757 0.538297,-1.03353 v -0.0861 q 0,-0.51676 -0.322978,-0.90434 -0.322978,-0.38757 -0.904339,-0.58136 -0.581361,-0.21532 -1.378041,-0.21532 -0.839743,0 -1.464168,0.23686 -0.624425,0.23685 -0.990467,0.71055 -0.366042,0.45217 -0.473701,1.14119 l -7.859139,-0.17226 q 0.236851,-2.45463 1.528764,-4.22025 1.313445,-1.76561 3.703485,-2.71301 2.390039,-0.96894 5.856672,-0.96894 2.605359,0 4.629356,0.55983 2.023997,0.5383 3.42357,1.59336 1.399572,1.03353 2.110124,2.51923 0.710553,1.4857 0.710553,3.35897 v 15.48143 h -8.33284 v -3.22978 h -0.107659 q -0.753616,1.35651 -1.744083,2.15319 -0.968935,0.79668 -2.196252,1.14119 -1.205786,0.34451 -2.691486,0.34451 z m 2.799145,-5.38298 q 0.947403,0 1.808678,-0.36604 0.882808,-0.36604 1.421105,-1.07659 0.559829,-0.71055 0.559829,-1.74408 v -1.85175 q -0.322979,0.12919 -0.689021,0.23685 -0.366042,0.10766 -0.775147,0.21532 -0.409106,0.0861 -0.90434,0.19379 -0.495233,0.0861 -1.076594,0.19379 -0.904339,0.15072 -1.550296,0.4737 -0.624424,0.30144 -0.968935,0.77515 -0.322978,0.45217 -0.322978,1.03353 0,0.60289 0.322978,1.03353 0.322979,0.43063 0.882808,0.66749 0.559829,0.21531 1.291913,0.21531 z" />
      <path
         id="path427"
         style="font-weight:900;font-family:'Inter 28pt';-inkscape-font-specification:'Inter 28pt Heavy';fill:#3539b6;stroke-opacity:0"
         d="m 155.19463,172.67118 q -3.68195,0 -6.11505,-0.99047 -2.41157,-0.99047 -3.72502,-2.69148 -1.31344,-1.70102 -1.67949,-3.85421 l 8.00987,-0.23685 q 0.15072,0.55983 0.60289,0.99046 0.4737,0.43064 1.20578,0.66749 0.73209,0.23685 1.67949,0.23685 1.87327,0 2.77761,-0.99046 0.92587,-0.99047 0.92587,-3.01447 v -3.63889 h -0.15072 q -0.51676,1.29192 -1.44263,2.15319 -0.90434,0.86128 -2.15319,1.27038 -1.22732,0.40911 -2.75608,0.40911 -2.88528,0 -5.08153,-1.39957 -2.19625,-1.39958 -3.42357,-3.96187 -1.22732,-2.56229 -1.22732,-6.05046 0,-3.57429 1.27038,-6.20118 1.27039,-2.64842 3.44511,-4.09106 2.19625,-1.46417 4.9308,-1.46417 1.57183,0 2.77761,0.4737 1.22732,0.45217 2.15319,1.31345 0.9474,0.83974 1.57183,2.00246 h 0.0646 v -3.31591 h 8.56969 v 21.57495 q 0,3.70349 -1.46416,6.09353 -1.46417,2.39003 -4.19872,3.55276 -2.73455,1.16272 -6.56723,1.16272 z m -0.12919,-16.17045 q 1.20579,0 2.08859,-0.60289 0.90434,-0.62443 1.39958,-1.76562 0.49523,-1.14119 0.49523,-2.69148 0,-1.5503 -0.49523,-2.69149 -0.49524,-1.14119 -1.39958,-1.74408 -0.8828,-0.62442 -2.08859,-0.62442 -1.16272,0 -2.00246,0.62442 -0.81822,0.60289 -1.24885,1.74408 -0.43064,1.14119 -0.43064,2.69149 0,1.55029 0.43064,2.69148 0.43063,1.14119 1.24885,1.76562 0.83974,0.60289 2.00246,0.60289 z m -30.51068,-5.55522 v 12.38083 H 115.942 v -23.03912 h 8.41897 l 0.0215,6.24425 h -0.92587 q 1.012,-2.90681 2.9714,-4.80161 1.9594,-1.91634 5.38297,-1.91634 2.54077,0 4.28485,1.11966 1.74408,1.09812 2.64842,3.12212 0.90434,2.00247 0.90434,4.71549 v 14.55555 h -8.63429 v -12.66075 q 0,-1.72255 -0.83974,-2.66995 -0.83974,-0.94741 -2.39004,-0.94741 -1.012,0 -1.74408,0.43064 -0.73208,0.43064 -1.11966,1.31345 -0.36604,0.86127 -0.36604,2.15319 z m -21.10125,12.38083 v -23.03912 h 8.61275 v 23.03912 z m 4.26331,-24.76167 q -1.9594,0 -3.22978,-1.16272 -1.27038,-1.16272 -1.27038,-2.92834 0,-1.78714 1.27038,-2.92833 1.27038,-1.16273 3.22978,-1.16273 1.9594,0 3.22979,1.16273 1.29191,1.14119 1.29191,2.92833 0,1.76562 -1.29191,2.92834 -1.27039,1.16272 -3.22979,1.16272 z m -23.21137,12.38084 v 12.38083 h -8.612754 v -32.08251 h 8.56969 v 15.28764 h -1.055062 q 1.011999,-2.90681 2.9714,-4.80161 1.959402,-1.91634 5.382972,-1.91634 2.540762,0 4.284845,1.11966 1.744083,1.09812 2.648422,3.12212 0.904339,2.00247 0.904339,4.71549 v 14.55555 h -8.634286 v -12.66075 q 0,-1.72255 -0.839744,-2.66995 -0.839743,-0.94741 -2.390039,-0.94741 -1.011999,0 -1.744083,0.43064 -0.732084,0.43064 -1.119658,1.31345 -0.366042,0.86127 -0.366042,2.15319 z M 72.942825,140.28722 v 6.50263 H 56.083359 v -6.50263 z M 59.74378,134.1937 h 8.612754 v 20.95052 q 0,0.94741 0.387574,1.33498 0.409106,0.36604 1.528764,0.36604 0.538297,0 1.399572,-0.0215 0.861276,-0.0215 1.184254,-0.0431 l 0.215319,6.48109 q -0.775148,0.0861 -2.110125,0.10766 -1.334977,0.0431 -2.734549,0.0431 -4.392505,0 -6.438034,-1.67949 -2.045529,-1.67949 -2.045529,-5.23225 z" />
    </g>
  </g>
</svg>
