<?xml version="1.0" encoding="UTF-8" standalone="no"?>
<!-- Created with Inkscape (http://www.inkscape.org/) -->

<svg
   width="364.427mm"
   height="136.504mm"
   viewBox="0 0 364.42702 136.504"
   version="1.1"
   id="svg5"
   inkscape:version="1.2.2 (b0a84865, 2022-12-01)"
   sodipodi:docname="resume-dark.svg"
   inkscape:export-filename="aithing-dark.png"
   inkscape:export-xdpi="96"
   inkscape:export-ydpi="96"
   xmlns:inkscape="http://www.inkscape.org/namespaces/inkscape"
   xmlns:sodipodi="http://sodipodi.sourceforge.net/DTD/sodipodi-0.dtd"
   xmlns="http://www.w3.org/2000/svg"
   xmlns:svg="http://www.w3.org/2000/svg">
  <sodipodi:namedview
     id="namedview7"
     pagecolor="#ffffff"
     bordercolor="#000000"
     borderopacity="0.25"
     inkscape:showpageshadow="2"
     inkscape:pageopacity="0.0"
     inkscape:pagecheckerboard="0"
     inkscape:deskcolor="#d1d1d1"
     inkscape:document-units="mm"
     showgrid="false"
     inkscape:zoom="0.5946522"
     inkscape:cx="644.91479"
     inkscape:cy="206.8436"
     inkscape:window-width="1512"
     inkscape:window-height="916"
     inkscape:window-x="0"
     inkscape:window-y="38"
     inkscape:window-maximized="0"
     inkscape:current-layer="layer1" />
  <defs
     id="defs2" />
  <g
     inkscape:label="Layer 1"
     inkscape:groupmode="layer"
     id="layer1"
     transform="translate(-45.554166,-146.97445)">
    <g
       aria-label="by aithing"
       id="text740"
       style="font-weight:bold;font-size:44.0973px;font-family:'Josefin Sans';-inkscape-font-specification:'Josefin Sans Bold';opacity:1;stroke:#ffffff;stroke-width:0"
       transform="translate(1.0583333,0.52916663)">
      <path
         id="path1180"
         style="font-weight:900;font-family:'Inter 28pt';-inkscape-font-specification:'Inter 28pt Heavy';opacity:1;stroke-opacity:0"
         d="m 285.65873,272.13409 v -23.03911 h 8.61275 v 23.03911 z m 4.26331,-24.76166 q -1.9594,0 -3.22978,-1.16273 -1.27038,-1.16272 -1.27038,-2.92833 0,-1.78715 1.27038,-2.92834 1.27038,-1.16272 3.22978,-1.16272 1.9594,0 3.22978,1.16272 1.29192,1.14119 1.29192,2.92834 0,1.76561 -1.29192,2.92833 -1.27038,1.16273 -3.22978,1.16273 z M 266.7322,272.5432 q -2.28238,0 -4.04799,-0.73208 -1.74408,-0.75362 -2.73455,-2.23932 -0.99047,-1.50723 -0.99047,-3.81114 0,-1.91634 0.66749,-3.25132 0.66749,-1.35651 1.85174,-2.21778 1.20579,-0.86128 2.79915,-1.31345 1.59336,-0.45217 3.4451,-0.58136 2.00247,-0.12919 3.20825,-0.34451 1.22732,-0.23685 1.76562,-0.62442 0.53829,-0.38758 0.53829,-1.03353 v -0.0861 q 0,-0.51677 -0.32298,-0.90434 -0.32297,-0.38757 -0.90433,-0.58136 -0.58137,-0.21532 -1.37805,-0.21532 -0.83974,0 -1.46416,0.23685 -0.62443,0.23685 -0.99047,0.71055 -0.36604,0.45217 -0.4737,1.14119 l -7.85914,-0.17225 q 0.23685,-2.45464 1.52876,-4.22025 1.31345,-1.76562 3.70349,-2.71302 2.39004,-0.96893 5.85667,-0.96893 2.60536,0 4.62936,0.55982 2.02399,0.5383 3.42357,1.59336 1.39957,1.03353 2.11012,2.51923 0.71055,1.4857 0.71055,3.35898 v 15.48142 h -8.33284 v -3.22978 h -0.10766 q -0.75361,1.35651 -1.74408,2.15319 -0.96893,0.79668 -2.19625,1.14119 -1.20579,0.34451 -2.69149,0.34451 z m 2.79915,-5.38297 q 0.9474,0 1.80868,-0.36604 0.8828,-0.36605 1.4211,-1.0766 0.55983,-0.71055 0.55983,-1.74408 v -1.85174 q -0.32298,0.12919 -0.68902,0.23685 -0.36604,0.10766 -0.77515,0.21532 -0.4091,0.0861 -0.90434,0.19378 -0.49523,0.0861 -1.07659,0.19379 -0.90434,0.15072 -1.5503,0.4737 -0.62442,0.30145 -0.96893,0.77515 -0.32298,0.45217 -0.32298,1.03353 0,0.60289 0.32298,1.03353 0.32298,0.43064 0.88281,0.66749 0.55982,0.21532 1.29191,0.21532 z m -43.73126,13.82347 0.40911,-6.45957 2.92833,0.0646 q 0.94741,0.0861 1.4857,-0.10766 0.55983,-0.17226 0.83975,-0.66749 0.30144,-0.4737 0.43063,-1.24885 l 0.0431,-0.43064 -8.76348,-23.03911 h 8.9788 l 2.92833,9.94773 q 0.68902,2.34697 1.24885,4.71548 0.55983,2.36851 1.14119,4.84468 h -2.26085 q 0.55983,-2.47617 1.14119,-4.84468 0.6029,-2.39004 1.33498,-4.71548 l 3.05753,-9.94773 h 8.89267 l -9.66782,25.77366 q -0.79668,2.15319 -1.89481,3.55276 -1.09812,1.39958 -2.69148,2.06707 -1.57183,0.68902 -3.83268,0.68902 -1.44263,0 -2.94986,-0.0646 -1.48571,-0.0431 -2.79915,-0.12919 z m -12.70381,-8.3759 q -1.52877,0 -2.79915,-0.47371 -1.27038,-0.4737 -2.19625,-1.39957 -0.90434,-0.92587 -1.4211,-2.21778 h -0.0646 v 3.61735 h -8.52663 v -32.08251 h 8.61276 v 12.29471 h 0.0431 q 0.66749,-1.20578 1.57183,-2.024 0.90434,-0.83974 2.11012,-1.27038 1.22732,-0.43063 2.75609,-0.43063 2.75608,0 4.9308,1.46416 2.19625,1.46417 3.46663,4.15566 1.27038,2.66995 1.27038,6.3519 0,3.72502 -1.24885,6.41651 -1.22732,2.69148 -3.42357,4.15565 -2.17472,1.44264 -5.08152,1.44264 z m -2.69149,-6.73948 q 1.18426,0 2.00247,-0.64596 0.81821,-0.64596 1.24885,-1.83021 0.45217,-1.18425 0.45217,-2.79915 0,-1.61489 -0.45217,-2.77761 -0.43064,-1.18425 -1.24885,-1.83021 -0.81821,-0.64596 -2.00247,-0.64596 -1.16272,0 -2.06706,0.64596 -0.90434,0.64596 -1.4211,1.83021 -0.49524,1.16272 -0.49524,2.77761 0,1.6149 0.49524,2.79915 0.51676,1.18425 1.4211,1.83021 0.90434,0.64596 2.06706,0.64596 z" />
      <path
         id="path1190"
         style="font-weight:900;font-family:'Inter 28pt';-inkscape-font-specification:'Inter 28pt Heavy';fill:#3539b6;stroke-opacity:0"
         d="m 395.75127,281.47893 q -3.68195,0 -6.11506,-0.99046 -2.41157,-0.99047 -3.72501,-2.69149 -1.31345,-1.70102 -1.67949,-3.85421 l 8.00986,-0.23685 q 0.15072,0.55983 0.60289,0.99047 0.47371,0.43064 1.20579,0.66749 0.73208,0.23685 1.67949,0.23685 1.87327,0 2.77761,-0.99047 0.92587,-0.99047 0.92587,-3.01446 v -3.63889 h -0.15072 q -0.51677,1.29191 -1.44264,2.15319 -0.90434,0.86127 -2.15319,1.27038 -1.22731,0.4091 -2.75608,0.4091 -2.88527,0 -5.08152,-1.39957 -2.19626,-1.39957 -3.42357,-3.96187 -1.22732,-2.56229 -1.22732,-6.05046 0,-3.57429 1.27038,-6.20118 1.27038,-2.64842 3.4451,-4.09106 2.19625,-1.46416 4.9308,-1.46416 1.57183,0 2.77762,0.4737 1.22731,0.45217 2.15319,1.31344 0.9474,0.83975 1.57182,2.00247 h 0.0646 v -3.31591 h 8.56969 v 21.57495 q 0,3.70348 -1.46417,6.09352 -1.46417,2.39004 -4.19872,3.55276 -2.73455,1.16272 -6.56722,1.16272 z m -0.12919,-16.17044 q 1.20578,0 2.08859,-0.6029 0.90434,-0.62442 1.39957,-1.76561 0.49524,-1.14119 0.49524,-2.69149 0,-1.55029 -0.49524,-2.69148 -0.49523,-1.14119 -1.39957,-1.74408 -0.88281,-0.62443 -2.08859,-0.62443 -1.16272,0 -2.00247,0.62443 -0.81821,0.60289 -1.24885,1.74408 -0.43064,1.14119 -0.43064,2.69148 0,1.5503 0.43064,2.69149 0.43064,1.14119 1.24885,1.76561 0.83975,0.6029 2.00247,0.6029 z m -30.51069,-5.55523 v 12.38083 h -8.61276 v -23.03911 h 8.41897 l 0.0215,6.24424 h -0.92587 q 1.012,-2.9068 2.9714,-4.80161 1.9594,-1.91633 5.38297,-1.91633 2.54077,0 4.28485,1.11965 1.74408,1.09813 2.64842,3.12213 0.90434,2.00246 0.90434,4.71548 v 14.55555 h -8.63429 v -12.66074 q 0,-1.72256 -0.83974,-2.66996 -0.83974,-0.9474 -2.39004,-0.9474 -1.012,0 -1.74408,0.43064 -0.73209,0.43063 -1.11966,1.31344 -0.36604,0.86128 -0.36604,2.15319 z m -21.10125,12.38083 v -23.03911 h 8.61275 v 23.03911 z m 4.26331,-24.76166 q -1.9594,0 -3.22978,-1.16273 -1.27038,-1.16272 -1.27038,-2.92833 0,-1.78715 1.27038,-2.92834 1.27038,-1.16272 3.22978,-1.16272 1.9594,0 3.22978,1.16272 1.29192,1.14119 1.29192,2.92834 0,1.76561 -1.29192,2.92833 -1.27038,1.16273 -3.22978,1.16273 z m -23.21137,12.38083 v 12.38083 h -8.61276 v -32.08251 h 8.56969 v 15.28764 h -1.05506 q 1.012,-2.9068 2.9714,-4.80161 1.9594,-1.91633 5.38297,-1.91633 2.54077,0 4.28485,1.11965 1.74408,1.09813 2.64842,3.12213 0.90434,2.00246 0.90434,4.71548 v 14.55555 h -8.63429 v -12.66074 q 0,-1.72256 -0.83974,-2.66996 -0.83974,-0.9474 -2.39004,-0.9474 -1.012,0 -1.74408,0.43064 -0.73209,0.43063 -1.11966,1.31344 -0.36604,0.86128 -0.36604,2.15319 z m -11.56262,-10.65828 v 6.50263 h -16.85947 v -6.50263 z m -13.19905,-6.09353 h 8.61276 v 20.95053 q 0,0.9474 0.38757,1.33497 0.40911,0.36605 1.52876,0.36605 0.5383,0 1.39958,-0.0215 0.86127,-0.0215 1.18425,-0.0431 l 0.21532,6.4811 q -0.77515,0.0861 -2.11013,0.10766 -1.33497,0.0431 -2.73455,0.0431 -4.3925,0 -6.43803,-1.67949 -2.04553,-1.67948 -2.04553,-5.23224 z" />
    </g>
    <g
       aria-label="Resume "
       id="text481"
       style="font-weight:900;font-size:44.0973px;font-family:'Inter 28pt';-inkscape-font-specification:'Inter 28pt Heavy';stroke:#ffffff;stroke-width:0;stroke-opacity:0"
       transform="translate(1.0583333,1.0583333)">
      <path
         d="m 45.554166,223.97209 v -76.99764 h 26.923337 q 7.648088,0 13.177448,2.84219 5.581038,2.8422 8.578261,8.00983 3.0489,5.16762 3.0489,12.14392 0,6.87294 -3.152252,12.04057 -3.100577,5.16763 -8.73329,8.00982 -5.632713,2.79052 -13.280801,2.79052 H 49.481563 v -6.35618 h 22.840911 q 5.581037,0 9.56011,-2.01537 4.030749,-2.06706 6.201152,-5.73607 2.170403,-3.72069 2.170403,-8.73329 0,-5.11595 -2.170403,-8.83664 -2.170403,-3.72069 -6.201152,-5.73607 -4.030749,-2.06705 -9.663463,-2.06705 H 52.633815 v 70.64146 z m 44.855002,0 -18.551781,-34.77813 h 7.958146 l 18.810162,34.77813 z"
         style="font-weight:300;font-size:105.833px;-inkscape-font-specification:'Inter 28pt Light'"
         id="path986" />
      <path
         d="m 129.68313,225.10897 q -7.75144,0 -13.43583,-3.66902 -5.63271,-3.72069 -8.73329,-10.18022 -3.0489,-6.51121 -3.0489,-14.77941 0,-8.37156 3.15225,-14.88277 3.15226,-6.51121 8.68162,-10.2319 5.58103,-3.72069 12.86739,-3.72069 5.32265,0 9.76681,2.01537 4.49584,1.9637 7.75144,5.68439 3.30729,3.72069 5.11595,8.94 1.80867,5.16762 1.80867,11.57548 v 2.27376 h -45.37176 v -5.8911 h 41.54772 l -2.89387,1.9637 q 0,-6.04612 -2.22208,-10.64531 -2.22208,-4.65087 -6.20115,-7.23468 -3.97908,-2.58381 -9.30173,-2.58381 -5.37433,0 -9.45676,2.68716 -4.03075,2.63549 -6.3045,7.33803 -2.22208,4.65087 -2.22208,10.80034 v 2.73885 q 0,6.35618 2.22208,11.26542 2.27375,4.90925 6.40785,7.64809 4.18578,2.73884 9.92185,2.73884 4.08242,0 7.33803,-1.39526 3.30728,-1.39526 5.52936,-3.82404 2.27375,-2.48046 3.2556,-5.68439 l 6.66624,0.46509 q -1.13688,4.85757 -4.39248,8.62993 -3.20393,3.7207 -7.95815,5.83942 -4.70254,2.11873 -10.49028,2.11873 z"
         style="font-weight:300;font-size:105.833px;-inkscape-font-specification:'Inter 28pt Light'"
         id="path988" />
      <path
         d="m 182.90969,225.05729 q -5.83942,0 -10.38693,-1.91202 -4.54751,-1.91202 -7.33803,-5.68439 -2.79052,-3.77237 -3.2556,-9.25005 l 6.61456,-0.36173 q 0.62011,5.426 4.28913,8.37155 3.66901,2.94555 9.97352,2.94555 6.45953,0 10.18022,-2.8422 3.77237,-2.89387 3.77237,-7.28635 0,-3.51399 -2.48046,-5.52936 -2.48046,-2.01538 -6.92462,-3.0489 l -9.09502,-2.1704 q -7.38971,-1.757 -11.21375,-5.37434 -3.77237,-3.66901 -3.77237,-9.40508 0,-4.70254 2.48046,-8.21652 2.48046,-3.56567 6.92462,-5.58104 4.44416,-2.01538 10.18022,-2.01538 5.58104,0 9.8185,2.01538 4.28913,2.01537 6.82126,5.73606 2.58382,3.66902 3.0489,8.78497 l -6.51121,0.36173 q -0.51676,-4.96092 -3.87572,-7.95814 -3.35895,-3.0489 -9.30173,-3.0489 -5.78774,0 -9.30172,2.79052 -3.51399,2.73884 -3.51399,7.02797 0,3.56566 2.53214,5.68439 2.58381,2.11873 7.33803,3.2556 l 8.99167,2.11873 q 7.44138,1.75699 11.05872,5.2193 3.61734,3.41064 3.61734,9.1467 0,4.96093 -2.63549,8.62994 -2.63549,3.61734 -7.33803,5.63272 -4.65087,1.96369 -10.69699,1.96369 z"
         style="font-weight:300;font-size:105.833px;-inkscape-font-specification:'Inter 28pt Light'"
         id="path990" />
      <path
         d="m 235.05105,224.90226 q -5.63271,0 -10.18022,-2.42878 -4.54752,-2.48046 -7.18301,-7.183 -2.63549,-4.70254 -2.63549,-11.52381 v -35.08819 h 6.71792 v 34.67478 q 0,7.28635 3.9274,11.3171 3.97907,4.03075 10.64531,4.03075 4.49583,0 8.0615,-1.86034 3.61733,-1.86035 5.68439,-5.47769 2.11872,-3.61734 2.11872,-8.88832 v -33.79628 h 6.71792 v 55.29361 H 252.3626 V 210.898 h 1.70532 q -2.42879,7.23467 -7.49306,10.64531 -5.0126,3.35895 -11.52381,3.35895 z"
         style="font-weight:300;font-size:105.833px;-inkscape-font-specification:'Inter 28pt Light'"
         id="path992" />
      <path
         d="m 273.23982,223.97209 v -55.29361 h 6.56289 l 0.0517,11.93722 h -0.98185 q 1.39526,-4.28913 4.03075,-7.13132 2.68717,-2.8422 6.14948,-4.28913 3.51398,-1.44694 7.28635,-1.44694 6.40786,0 10.80034,3.77237 4.39248,3.72069 5.52936,9.40508 h -1.44693 q 1.0852,-3.87572 3.66901,-6.82127 2.63549,-2.99722 6.35618,-4.65086 3.77237,-1.70532 8.37156,-1.70532 5.16763,0 9.19838,2.27376 4.08242,2.22208 6.40785,6.61456 2.37711,4.39248 2.37711,10.95537 v 36.38009 h -6.76959 V 187.592 q 0,-6.9763 -3.72069,-10.28358 -3.72069,-3.35896 -9.19838,-3.35896 -4.18578,0 -7.3897,1.80867 -3.15226,1.757 -4.96093,5.0126 -1.80867,3.20393 -1.80867,7.49306 v 35.7083 h -6.71791 v -37.00021 q 0,-6.04612 -3.51399,-9.50843 -3.51398,-3.51399 -9.09502,-3.51399 -3.87572,0 -7.183,1.80867 -3.30728,1.80867 -5.32266,5.21931 -1.9637,3.41063 -1.9637,8.2682 v 34.72645 z"
         style="font-weight:300;font-size:105.833px;-inkscape-font-specification:'Inter 28pt Light'"
         id="path994" />
      <path
         d="m 384.03373,225.10897 q -7.75145,0 -13.43584,-3.66902 -5.63271,-3.72069 -8.73328,-10.18022 -3.0489,-6.51121 -3.0489,-14.77941 0,-8.37156 3.15225,-14.88277 3.15225,-6.51121 8.68161,-10.2319 5.58104,-3.72069 12.86739,-3.72069 5.32266,0 9.76682,2.01537 4.49583,1.9637 7.75144,5.68439 3.30728,3.72069 5.11595,8.94 1.80867,5.16762 1.80867,11.57548 v 2.27376 h -45.37177 v -5.8911 h 41.54772 l -2.89387,1.9637 q 0,-6.04612 -2.22208,-10.64531 -2.22208,-4.65087 -6.20115,-7.23468 -3.97907,-2.58381 -9.30173,-2.58381 -5.37433,0 -9.45675,2.68716 -4.03075,2.63549 -6.30451,7.33803 -2.22208,4.65087 -2.22208,10.80034 v 2.73885 q 0,6.35618 2.22208,11.26542 2.27376,4.90925 6.40786,7.64809 4.18578,2.73884 9.92184,2.73884 4.08243,0 7.33803,-1.39526 3.30728,-1.39526 5.52936,-3.82404 2.27376,-2.48046 3.25561,-5.68439 l 6.66624,0.46509 q -1.13688,4.85757 -4.39249,8.62993 -3.20393,3.7207 -7.95814,5.83942 -4.70254,2.11873 -10.49028,2.11873 z"
         style="font-weight:300;font-size:105.833px;-inkscape-font-specification:'Inter 28pt Light'"
         id="path996" />
    </g>
  </g>
</svg>
